<svg width="74" height="32" viewBox="0 0 74 32" fill="none" xmlns="http://www.w3.org/2000/svg">
<path d="M6.6063 7.86674H10.6833V8.58357C10.438 9.72315 9.9472 10.587 9.21107 11.2119C8.45607 11.8369 7.53118 12.1493 6.39867 12.1493C4.94529 12.1493 3.81278 11.6715 3.02002 10.6973C2.18952 9.74153 1.79314 8.45491 1.79314 6.85583C1.79314 5.20161 2.20839 3.89661 3.0389 2.94084C3.8694 2.00345 5.05854 1.52556 6.56855 1.52556C7.58781 1.52556 8.45607 1.7645 9.15444 2.20563C9.83395 2.66514 10.287 3.32682 10.4757 4.1907L12.1745 4.08041C11.9668 2.83056 11.344 1.81964 10.3247 1.08443C9.2677 0.367606 7.98419 0 6.47417 0C4.45453 0 2.86902 0.624929 1.73651 1.83802C0.566254 3.08788 0 4.7421 0 6.80069C0 8.9328 0.58513 10.6054 1.77426 11.8185C2.9634 13.0684 4.49228 13.6749 6.36092 13.6749C8.32394 13.6749 9.77732 12.9948 10.74 11.6163L11.1363 13.3808H12.4198V6.37794H6.6063V7.86674Z" fill="#2B2B2B"/>
<path d="M24.1157 12.131C23.7948 12.131 23.5683 12.0758 23.455 11.9472C23.3229 11.8369 23.2663 11.6163 23.2663 11.3038V6.63527C23.2663 4.61344 21.9828 3.60253 19.4535 3.60253C16.9053 3.60253 15.5463 4.63182 15.3953 6.69041H17.113C17.1507 6.08386 17.3584 5.64273 17.6981 5.38541C18.0379 5.12809 18.5852 4.99943 19.3214 4.99943C20.7747 4.99943 21.5109 5.49569 21.5109 6.46985V6.87421C21.5109 7.31534 21.2655 7.55428 20.8125 7.59104L18.321 7.9035C16.0937 8.19759 14.999 9.17174 14.999 10.8627C14.999 11.745 15.2821 12.425 15.8672 12.9029C16.4335 13.3808 17.2451 13.6198 18.2644 13.6198C19.0382 13.6198 19.7366 13.4727 20.3595 13.1786C20.9635 12.8845 21.4543 12.4986 21.794 11.9839C21.8695 12.9213 22.4169 13.3808 23.4739 13.3808H24.3988V12.131H24.1157ZM18.5852 12.3148C18.0001 12.3148 17.5471 12.1861 17.2073 11.9104C16.8676 11.6531 16.7166 11.2671 16.7166 10.7892C16.7166 9.88857 17.3395 9.33716 18.6041 9.15336L21.5109 8.73061V10.054C21.5109 10.6605 21.2089 11.1936 20.6426 11.6347C20.0575 12.0942 19.378 12.3148 18.5852 12.3148Z" fill="#2B2B2B"/>
<path d="M36.6358 3.65767C35.2013 3.65767 34.182 4.20908 33.5402 5.31189C33.1061 4.20908 32.2001 3.65767 30.8411 3.65767C29.5198 3.65767 28.5383 4.20908 27.8777 5.29351L27.9532 3.89661H26.2922V13.3808H28.0287V8.32625C28.0287 7.2602 28.2363 6.46985 28.6893 5.93682C29.1235 5.40379 29.6897 5.12809 30.407 5.12809C30.9355 5.12809 31.3319 5.29351 31.6339 5.60597C31.9359 5.91844 32.0869 6.34118 32.0869 6.89259V13.3808H33.8234V8.23435C33.8234 7.18667 34.031 6.41471 34.4651 5.90006C34.8993 5.38541 35.4844 5.12809 36.2016 5.12809C36.7301 5.12809 37.1454 5.29351 37.4474 5.60597C37.7305 5.91844 37.8815 6.34118 37.8815 6.89259V13.3808H39.618V6.87421C39.618 4.7421 38.6177 3.65767 36.6358 3.65767Z" fill="#2B2B2B"/>
<path d="M51.117 8.41815C51.117 6.94773 50.7017 5.78978 49.909 4.94429C49.1162 4.09879 48.0215 3.67605 46.6625 3.67605C45.2279 3.67605 44.0954 4.13555 43.3027 5.01781C42.4722 5.93682 42.0758 7.13153 42.0758 8.60195C42.0758 10.0908 42.491 11.2855 43.3216 12.2045C44.1143 13.1419 45.2468 13.6014 46.7002 13.6014C47.7572 13.6014 48.6821 13.3441 49.4371 12.7927C50.1921 12.2596 50.7395 11.506 51.0415 10.5135L49.456 10.3297C49.003 11.5979 48.097 12.2229 46.7568 12.2229C45.8508 12.2229 45.1336 11.9655 44.6239 11.4141C44.0954 10.8627 43.8312 10.0724 43.8123 9.04308H51.117V8.41815ZM48.6066 5.7714C49.0785 6.26766 49.3805 6.94773 49.4937 7.82998H43.8312C43.9256 6.92935 44.2276 6.2309 44.7372 5.75302C45.2468 5.29351 45.8886 5.05457 46.6813 5.05457C47.4741 5.05457 48.1158 5.29351 48.6066 5.7714Z" fill="#2B2B2B"/>
<path d="M0.396378 18.6743V31.7611H2.15177V26.3021H5.88904C7.24805 26.3021 8.32394 25.9713 9.09782 25.3096C9.85283 24.6479 10.2492 23.6737 10.2492 22.4239C10.2492 21.2292 9.85283 20.3102 9.09782 19.6485C8.32394 19.0052 7.26693 18.6743 5.9268 18.6743H0.396378ZM2.15177 24.8133V20.1631H5.83242C7.60668 20.1631 8.49382 20.9351 8.49382 22.4423C8.49382 23.2142 8.26731 23.8024 7.81431 24.2068C7.36131 24.6111 6.71955 24.8133 5.9268 24.8133H2.15177Z" fill="#2B2B2B"/>
<path d="M16.5087 32C17.8677 32 18.9813 31.5405 19.8873 30.5847C20.7556 29.6657 21.2086 28.4526 21.2086 26.9454C21.2086 25.475 20.7745 24.2803 19.9251 23.3613C19.0568 22.479 17.9243 22.0379 16.5653 22.0379C15.1497 22.0379 14.0172 22.4974 13.1489 23.398C12.2618 24.2987 11.8276 25.5118 11.8276 27.019C11.8276 28.5078 12.2618 29.7025 13.13 30.6215C13.9605 31.5405 15.093 32 16.5087 32ZM16.5087 30.5847C15.6027 30.5847 14.8854 30.2723 14.3569 29.6106C13.8284 28.9673 13.5642 28.1034 13.5642 27.019C13.5642 25.9161 13.8095 25.0523 14.338 24.409C14.8665 23.784 15.5838 23.4532 16.5087 23.4532C17.4336 23.4532 18.1508 23.7657 18.6793 24.3906C19.2078 25.0155 19.4721 25.8794 19.4721 26.9454C19.4721 28.0482 19.2078 28.9305 18.6793 29.5922C18.1508 30.2539 17.4147 30.5847 16.5087 30.5847Z" fill="#2B2B2B"/>
<path d="M28.4506 22.0195C27.0161 22.0195 25.9591 22.7547 25.2796 24.1884V22.2768H23.6563V31.7611H25.3928V26.5778C25.4306 25.6772 25.7326 24.9604 26.2988 24.4457C26.8462 23.9311 27.4691 23.6737 28.1863 23.6737C28.5072 23.6737 28.7148 23.6921 28.8092 23.6921V22.0379C28.7526 22.0379 28.6393 22.0195 28.4506 22.0195Z" fill="#2B2B2B"/>
<path d="M35.7469 23.5819V22.2768L33.5196 22.3504V19.3728H31.7831V22.332L30.3297 22.2768V23.5819L31.7831 23.5083V29.6473C31.7831 30.3825 31.953 30.9339 32.2927 31.2648C32.6325 31.5956 33.1987 31.7611 33.9537 31.7611H35.728V30.3458H34.4634C34.0859 30.3458 33.8405 30.2906 33.7084 30.162C33.5762 30.0333 33.5196 29.7944 33.5196 29.4268V23.5083L35.7469 23.5819Z" fill="#2B2B2B"/>
<path d="M42.6065 20.0896V18.6743H41.5684C40.5491 18.6743 39.7941 18.9133 39.3411 19.3544C38.8692 19.8139 38.6427 20.5307 38.6427 21.5233V22.332L37.0761 22.2768V23.5819L38.6427 23.5083V31.7611H40.3792V23.5083L42.6065 23.5819V22.2768L40.3792 22.3504V21.2843C40.3792 20.8432 40.4547 20.5307 40.6435 20.3469C40.8134 20.1815 41.1343 20.0896 41.6061 20.0896H42.6065Z" fill="#2B2B2B"/>
<path d="M48.5264 32C49.8854 32 50.999 31.5405 51.905 30.5847C52.7733 29.6657 53.2263 28.4526 53.2263 26.9454C53.2263 25.475 52.7922 24.2803 51.9428 23.3613C51.0745 22.479 49.942 22.0379 48.583 22.0379C47.1674 22.0379 46.0349 22.4974 45.1666 23.398C44.2795 24.2987 43.8453 25.5118 43.8453 27.019C43.8453 28.5078 44.2795 29.7025 45.1477 30.6215C45.9782 31.5405 47.1107 32 48.5264 32ZM48.5264 30.5847C47.6204 30.5847 46.9031 30.2723 46.3746 29.6106C45.8461 28.9673 45.5819 28.1034 45.5819 27.019C45.5819 25.9161 45.8272 25.0523 46.3557 24.409C46.8842 23.784 47.6015 23.4532 48.5264 23.4532C49.4513 23.4532 50.1685 23.7657 50.697 24.3906C51.2255 25.0155 51.4898 25.8794 51.4898 26.9454C51.4898 28.0482 51.2255 28.9305 50.697 29.5922C50.1685 30.2539 49.4324 30.5847 48.5264 30.5847Z" fill="#2B2B2B"/>
<path d="M57.4105 31.7611V18.6743H55.674V31.7611H57.4105Z" fill="#2B2B2B"/>
<path d="M62.1662 20.494V18.6743H60.4297V20.494H62.1662ZM62.1662 31.7611V22.2768H60.4297V31.7611H62.1662Z" fill="#2B2B2B"/>
<path d="M69.3001 32C70.6591 32 71.7727 31.5405 72.6787 30.5847C73.547 29.6657 74 28.4526 74 26.9454C74 25.475 73.5659 24.2803 72.7165 23.3613C71.8482 22.479 70.7157 22.0379 69.3567 22.0379C67.9411 22.0379 66.8086 22.4974 65.9403 23.398C65.0532 24.2987 64.619 25.5118 64.619 27.019C64.619 28.5078 65.0532 29.7025 65.9214 30.6215C66.7519 31.5405 67.8845 32 69.3001 32ZM69.3001 30.5847C68.3941 30.5847 67.6768 30.2723 67.1483 29.6106C66.6198 28.9673 66.3556 28.1034 66.3556 27.019C66.3556 25.9161 66.6009 25.0523 67.1294 24.409C67.658 23.784 68.3752 23.4532 69.3001 23.4532C70.225 23.4532 70.9422 23.7657 71.4707 24.3906C71.9992 25.0155 72.2635 25.8794 72.2635 26.9454C72.2635 28.0482 71.9992 28.9305 71.4707 29.5922C70.9422 30.2539 70.2061 30.5847 69.3001 30.5847Z" fill="#2B2B2B"/>
</svg>
